HIERARCHY
ROOT Hips
{
	OFFSET 0.000000 0.000000 0.000000
	CHANNELS 6 Xposition Yposition Zposition Zrotation Yrotation Xrotation 
	JOINT LowerBack
	{
		OFFSET 0.000000 0.000000 0.000000
		CHANNELS 3 Zrotation Yrotation Xrotation
		JOINT Spine
		{
			OFFSET 0.028270 2.035590 -0.193380
			CHANNELS 3 Zrotation Yrotation Xrotation
			JOINT Spine1
			{
				OFFSET 0.056720 2.048850 -0.042750
				CHANNELS 3 Zrotation Yrotation Xrotation
				JOINT Neck
				{
					OFFSET 0.000000 0.000000 0.000000
					CHANNELS 3 Zrotation Yrotation Xrotation
					JOINT Neck1
					{
						OFFSET -0.054170 1.746240 0.172020
						CHANNELS 3 Zrotation Yrotation Xrotation
						JOINT Head
						{
							OFFSET 0.104070 1.761360 -0.123970
							CHANNELS 3 Zrotation Yrotation Xrotation
							End Site
							{
								OFFSET 0.000000 0.000000 0.000000
							}
						}
					}
				}
				JOINT LeftShoulder
				{
					OFFSET 0.000000 0.000000 0.000000
					CHANNELS 3 Zrotation Yrotation Xrotation
					JOINT LeftArm
					{
						OFFSET 3.362410 1.200890 -0.311210
						CHANNELS 3 Zrotation Yrotation Xrotation
						JOINT LeftForeArm
						{
							OFFSET 4.983000 -0.000000 -0.000000
							CHANNELS 3 Zrotation Yrotation Xrotation
							JOINT LeftHand
							{
								OFFSET 3.483560 -0.000000 -0.000000
								CHANNELS 3 Zrotation Yrotation Xrotation
								JOINT LeftFingerBase
								{
									OFFSET 0.000000 0.000000 0.000000
									CHANNELS 3 Zrotation Yrotation Xrotation
									JOINT LeftHandIndex1
									{
										OFFSET 0.715260 -0.000000 -0.000000
										CHANNELS 3 Zrotation Yrotation Xrotation
										End Site
										{
											OFFSET 0.000000 0.000000 0.000000
										}
									}
								}
								JOINT LThumb
								{
									OFFSET 0.000000 0.000000 0.000000
									CHANNELS 3 Zrotation Yrotation Xrotation
									End Site
									{
										OFFSET 0.000000 0.000000 0.000000
									}
								}
							}
						}
					}
				}
				JOINT RightShoulder
				{
					OFFSET 0.000000 0.000000 0.000000
					CHANNELS 3 Zrotation Yrotation Xrotation
					JOINT RightArm
					{
						OFFSET -3.136600 1.374050 -0.404650
						CHANNELS 3 Zrotation Yrotation Xrotation
						JOINT RightForeArm
						{
							OFFSET -5.241900 -0.000000 -0.000000
							CHANNELS 3 Zrotation Yrotation Xrotation
							JOINT RightHand
							{
								OFFSET -3.444170 -0.000000 -0.000000
								CHANNELS 3 Zrotation Yrotation Xrotation
								JOINT RightFingerBase
								{
									OFFSET 0.000000 0.000000 0.000000
									CHANNELS 3 Zrotation Yrotation Xrotation
									JOINT RightHandIndex1
									{
										OFFSET -0.622530 -0.000000 -0.000000
										CHANNELS 3 Zrotation Yrotation Xrotation
										End Site
										{
											OFFSET 0.000000 0.000000 0.000000
										}
									}
								}
								JOINT RThumb
								{
									OFFSET 0.000000 0.000000 0.000000
									CHANNELS 3 Zrotation Yrotation Xrotation
									End Site
									{
										OFFSET 0.000000 0.000000 0.000000
									}
								}
							}
						}
					}
				}
			}
		}
	}
}
}
MOTION
Frames: 6
Frame Time: 0.008333
-0.136543 17.094925 0.803761 14.528420 76.616024 26.441186 -1.739771 2.521790 -4.651695 -1.436210 2.429220 -3.934376 -6.577116 2.449048 -0.007193 10.544595 -8.603295 -8.850862 -3.166748 -0.238383 -0.312915 0.000000 0.000000 0.000000 0.476363 23.032723 0.094580 -66.012300 25.815956 2.645608 -179.980697 -89.612401 179.982581 13.514884 -2.320585 -0.293899 -0.242510 0.139174 0.000000 0.000000 0.000000 0.000000 0.000000 0.000000 0.000000 13.828556 1.625139 -1.195341 72.428976 17.410307 25.700321 0.631166 80.336769 0.001295 -1.456363 8.596573 -0.118122 0.059919 -0.499861 0.000000 0.000000 0.000000 0.000000 0.000000 0.000000 0.000000 
0.074658 17.090437 0.862534 17.228202 76.259826 28.862322 -2.366127 2.317142 -4.518975 -1.550052 2.285596 -3.915053 -6.593041 2.304221 -0.036144 10.654417 -8.700223 -8.884405 -3.229955 -0.242638 -0.325793 0.000000 0.000000 0.000000 0.506450 22.821566 0.061660 -66.068088 25.167799 2.408169 -179.965058 -89.222163 179.980976 13.594492 -2.361111 -0.301474 -0.244660 0.146492 0.000000 0.000000 0.000000 0.000000 0.000000 0.000000 0.000000 14.304926 1.448436 -1.168374 73.068444 16.554318 25.435092 0.702345 79.116080 0.001434 -1.507975 8.689160 -0.123622 0.061919 -0.492984 -0.000000 0.000000 0.000000 0.000000 0.000000 0.000000 0.000000 
0.282421 17.086227 0.922225 19.637781 75.844326 31.024190 -2.955720 2.107805 -4.388552 -1.653722 2.133315 -3.893092 -6.603462 2.150576 -0.060040 10.742045 -8.803825 -8.927191 -3.294678 -0.246870 -0.341663 0.000000 0.000000 0.000000 0.485623 22.605299 0.023039 -66.097888 24.404229 2.214620 -179.950135 -88.855223 179.979276 13.690750 -2.404637 -0.309942 -0.247256 0.154216 0.000000 0.000000 0.000000 0.000000 0.000000 0.000000 0.000000 14.769791 1.249809 -1.140047 73.714289 15.693186 25.092201 0.777525 77.789593 0.001306 -1.612466 8.808190 -0.133826 0.064720 -0.485572 -0.000000 0.000000 0.000000 0.000000 0.000000 0.000000 0.000000 
0.486898 17.082772 0.981615 21.613419 75.363202 32.788247 -3.472888 1.903062 -4.265534 -1.740567 1.978702 -3.869301 -6.608112 1.994420 -0.077664 10.802225 -8.915645 -8.978572 -3.360629 -0.251094 -0.360069 0.000000 0.000000 0.000000 0.399243 22.387361 -0.023948 -66.104309 23.538191 2.054651 -179.935306 -88.501991 179.977462 13.801322 -2.450141 -0.319003 -0.250334 0.162268 0.000000 0.000000 0.000000 0.000000 0.000000 0.000000 0.000000 15.216037 1.029972 -1.108839 74.345932 14.836185 24.677381 0.855796 76.360299 0.000907 -1.778468 8.948882 -0.149828 0.068486 -0.477409 -0.000000 0.000000 0.000000 0.000000 0.000000 0.000000 0.000000 
0.688411 17.080415 1.039968 23.104647 74.816375 34.108053 -3.901121 1.707646 -4.158226 -1.807781 1.825172 -3.844257 -6.607027 1.839210 -0.083642 10.835691 -9.040591 -9.040482 -3.427412 -0.255280 -0.381311 0.000000 0.000000 0.000000 0.251065 22.181814 -0.080777 -66.095371 22.567002 1.928403 -179.920562 -88.168103 179.975573 13.925147 -2.497510 -0.328854 -0.253955 0.170665 0.000000 0.000000 0.000000 0.000000 0.000000 0.000000 0.000000 15.644367 0.784770 -1.074664 74.943142 13.994984 24.201345 0.936326 74.834653 0.000239 -2.012967 9.102258 -0.172233 0.073335 -0.468275 -0.000000 0.000000 0.000000 0.000000 0.000000 0.000000 0.000000 
0.887395 17.079508 1.096623 24.096852 74.210583 34.972396 -4.226421 1.523939 -4.074658 -1.852966 1.674024 -3.818939 -6.600384 1.686290 -0.074390 10.843465 -9.181929 -9.113194 -3.494592 -0.259419 -0.405201 0.000000 0.000000 0.000000 0.046667 21.995438 -0.147981 -66.079492 21.495151 1.832398 -179.905754 -87.855832 179.973569 14.061081 -2.546321 -0.339396 -0.258162 0.179426 0.000000 0.000000 0.000000 0.000000 0.000000 0.000000 0.000000 16.054145 0.511160 -1.037570 75.486502 13.176140 23.673601 1.018075 73.224140 -0.000674 -2.318855 9.256131 -0.201341 0.079270 -0.457961 -0.000000 0.000000 0.000000 0.000000 0.000000 0.000000 0.000000 
